# xmcd
#
# Track frame offsets:
#	150
#	4312
#	24412
#	48862
#	63599
#	86136
#	97611
#	112890
#	114073
#	136573
#	162898
#
# Disc length: 2253 seconds
#
# Revision: 0
# Processed by: cddbd v1.5.1PL2 Copyright (c) Steve Scherf et al.
# Submitted via: EasyCDDAExtractor 8.0.2.1
#
DISCID=7308cb0b
DTITLE=Casiokids - Fuck Midi!
DYEAR=2006
DGENRE=Electronic
TTITLE0=Tante Gerd
TTITLE1=Il Fait Beau
TTITLE2=Bagamoyo
TTITLE3=Postcard From Congo
TTITLE4=Walking On Water
TTITLE5=Shortcut '99
TTITLE6=Den Trojanske Hesten
TTITLE7=Bjelge
TTITLE8=Last Dance of the Bolsjevik
TTITLE9=N'Dur
TTITLE10=110% Aere
EXTD=
EXTT0=
EXTT1=
EXTT2=
EXTT3=
EXTT4=
EXTT5=
EXTT6=
EXTT7=
EXTT8=
EXTT9=
EXTT10=
PLAYORDER=
